# xmcd CD database file
# Copyright (C) 1997 Ti Kan
# 
# Track frame offsets:
#     183
#     20400
#     38568
#     59573
#     76138
#     92038
#     116293
#     137355
#     151243
#     169755
#     189248
#     208598
#     231253
#     251545
# 
# Disc length: 3583 seconds
# 
# Revision: 1
# Processed by: cddbd v1.4b41PL1 Copyright (c) Steve Scherf et al.
# Submitted via: DiscPlay 4.0.4
# 
DISCID=a60dfd0e
DTITLE=The Manhattans - The Manhattans - The collection
DYEAR=1900
DGENRE=
TTITLE0=Kiss and say goodbye
TTITLE1=Its You
TTITLE2=Shining Star
TTITLE3=There's no me without you
TTITLE4=Don't Take your love From Me
TTITLE5=I kinda Miss You
TTITLE6=It Feels So good to be Loved So Bad
TTITLE7=Hurt
TTITLE8=Crazy
TTITLE9=We never dance to a love song
TTITLE10=You send Me
TTITLE11=Where did we go wrong
TTITLE12=Forever by your side
TTITLE13=Am I Losing You
EXTD=
EXTT0=
EXTT1=
EXTT2=
EXTT3=
EXTT4=
EXTT5=
EXTT6=
EXTT7=
EXTT8=
EXTT9=
EXTT10=
EXTT11=
EXTT12=
EXTT13=
PLAYORDER=
